<svg width="22" height="22" viewBox="0 0 22 22" fill="none" xmlns="http://www.w3.org/2000/svg">
<path d="M18.1406 18.8125C18.0524 18.8127 17.965 18.7953 17.8835 18.7615C17.8019 18.7277 17.7279 18.6781 17.6657 18.6156L2.88443 3.83432C2.76374 3.70729 2.69746 3.53815 2.6997 3.36295C2.70194 3.18775 2.77254 3.02036 2.89643 2.89646C3.02033 2.77257 3.18772 2.70197 3.36292 2.69973C3.53812 2.69749 3.70726 2.76377 3.83429 2.88446L18.6155 17.6657C18.7094 17.7597 18.7734 17.8794 18.7993 18.0096C18.8252 18.1399 18.8119 18.275 18.761 18.3977C18.7102 18.5204 18.6242 18.6254 18.5137 18.6992C18.4033 18.773 18.2734 18.8125 18.1406 18.8125ZM10.7357 16.125C8.99345 16.125 7.31334 15.6093 5.74199 14.5923C4.31132 13.6685 3.02342 12.3453 2.01729 10.771V10.7677C2.85461 9.56793 3.77172 8.5534 4.75686 7.73539C4.76577 7.72794 4.77304 7.71873 4.77821 7.70832C4.78337 7.69792 4.78633 7.68656 4.78688 7.67495C4.78743 7.66335 4.78557 7.65176 4.78142 7.64091C4.77726 7.63007 4.7709 7.6202 4.76274 7.61194L3.92625 6.77671C3.91139 6.76173 3.89143 6.75289 3.87034 6.75195C3.84925 6.75102 3.82858 6.75806 3.81245 6.77167C2.76601 7.65351 1.79473 8.73523 0.911633 10.0017C0.759699 10.2198 0.676023 10.4781 0.671238 10.7438C0.666453 11.0096 0.740774 11.2707 0.884758 11.4941C1.99377 13.2297 3.42109 14.6914 5.01175 15.7206C6.80272 16.8809 8.73016 17.4688 10.7357 17.4688C11.8182 17.4654 12.8931 17.287 13.9187 16.9405C13.9322 16.9359 13.9444 16.9279 13.954 16.9174C13.9636 16.9068 13.9703 16.8939 13.9735 16.88C13.9768 16.8661 13.9764 16.8516 13.9725 16.8378C13.9685 16.8241 13.9612 16.8116 13.951 16.8015L13.0449 15.8953C13.024 15.875 12.9982 15.8604 12.97 15.853C12.9418 15.8457 12.9122 15.8458 12.884 15.8533C12.1822 16.034 11.4604 16.1253 10.7357 16.125ZM20.6114 10.0193C19.5003 8.30103 18.0587 6.84138 16.4429 5.79787C14.6553 4.64225 12.6816 4.03126 10.7357 4.03126C9.66464 4.03316 8.60153 4.21529 7.59091 4.57002C7.57745 4.57471 7.56539 4.58274 7.55589 4.59337C7.54639 4.604 7.53975 4.61688 7.5366 4.63078C7.53345 4.64469 7.53389 4.65917 7.53789 4.67285C7.54188 4.68654 7.54929 4.69899 7.55942 4.70902L8.46435 5.61395C8.48541 5.63466 8.51157 5.64944 8.54018 5.65682C8.56878 5.66419 8.59883 5.66389 8.62728 5.65594C9.31468 5.46999 10.0236 5.37553 10.7357 5.37501C12.4444 5.37501 14.1194 5.89698 15.7139 6.92872C17.1714 7.86935 18.4744 9.19126 19.4831 10.75C19.4838 10.751 19.4843 10.7522 19.4843 10.7534C19.4843 10.7546 19.4838 10.7558 19.4831 10.7567C18.7509 11.9094 17.8424 12.94 16.7906 13.8108C16.7816 13.8182 16.7742 13.8275 16.7689 13.8379C16.7637 13.8483 16.7607 13.8597 16.7601 13.8714C16.7595 13.883 16.7613 13.8947 16.7655 13.9056C16.7697 13.9165 16.7761 13.9264 16.7843 13.9347L17.6199 14.7699C17.6347 14.7849 17.6545 14.7937 17.6755 14.7947C17.6965 14.7957 17.7171 14.7888 17.7333 14.7754C18.8562 13.8299 19.8281 12.7186 20.6156 11.4798C20.7548 11.2615 20.8284 11.0079 20.8277 10.749C20.8269 10.4901 20.7519 10.2368 20.6114 10.0193Z" fill="black" fill-opacity="0.3"/>
<path d="M10.75 6.71875C10.448 6.71859 10.147 6.75239 9.85262 6.81953C9.83775 6.82262 9.824 6.82968 9.81282 6.83997C9.80165 6.85025 9.79347 6.86337 9.78916 6.87794C9.78485 6.8925 9.78458 6.90796 9.78836 6.92267C9.79214 6.93738 9.79983 6.95078 9.81063 6.96147L14.5385 11.6881C14.5492 11.6989 14.5626 11.7066 14.5773 11.7104C14.592 11.7142 14.6075 11.7139 14.6221 11.7096C14.6366 11.7053 14.6497 11.6971 14.66 11.6859C14.6703 11.6747 14.6774 11.661 14.6805 11.6461C14.8151 11.0557 14.8149 10.4426 14.6801 9.85225C14.5452 9.26191 14.2791 8.70954 13.9015 8.23616C13.5239 7.76277 13.0445 7.38054 12.4989 7.11784C11.9533 6.85515 11.3555 6.71874 10.75 6.71875ZM6.96146 9.8119C6.95078 9.8011 6.93737 9.7934 6.92266 9.78962C6.90795 9.78584 6.89249 9.78612 6.87793 9.79043C6.86337 9.79474 6.85024 9.80291 6.83996 9.81409C6.82968 9.82526 6.82261 9.83902 6.81953 9.85389C6.66724 10.5192 6.68636 11.2123 6.8751 11.8682C7.06384 12.5241 7.41601 13.1213 7.89862 13.6039C8.38123 14.0865 8.97846 14.4387 9.63436 14.6274C10.2903 14.8162 10.9833 14.8353 11.6486 14.683C11.6635 14.6799 11.6773 14.6728 11.6884 14.6626C11.6996 14.6523 11.7078 14.6391 11.7121 14.6246C11.7164 14.61 11.7167 14.5946 11.7129 14.5799C11.7091 14.5651 11.7014 14.5517 11.6906 14.5411L6.96146 9.8119Z" fill="black" fill-opacity="0.3"/>
</svg>
