<svg width="22" height="22" viewBox="0 0 22 22" fill="none" xmlns="http://www.w3.org/2000/svg">
<path d="M10.7357 4.70312C7.46286 4.70312 4.10559 6.59739 1.4626 10.3859C1.38716 10.4953 1.34582 10.6245 1.3438 10.7573C1.34178 10.8901 1.37918 11.0206 1.45126 11.1321C3.482 14.3109 6.79435 16.7969 10.7357 16.7969C14.6343 16.7969 18.0147 14.3034 20.0492 11.1174C20.1196 11.008 20.157 10.8807 20.157 10.7506C20.157 10.6205 20.1196 10.4932 20.0492 10.3838C18.01 7.23441 14.6049 4.70312 10.7357 4.70312Z" stroke="black" stroke-opacity="0.3" stroke-width="1.34375" stroke-linecap="round" stroke-linejoin="round"/>
<path d="M10.75 14.1094C12.6053 14.1094 14.1094 12.6053 14.1094 10.75C14.1094 8.89467 12.6053 7.39062 10.75 7.39062C8.89467 7.39062 7.39062 8.89467 7.39062 10.75C7.39062 12.6053 8.89467 14.1094 10.75 14.1094Z" stroke="black" stroke-opacity="0.3" stroke-width="1.34375" stroke-miterlimit="10"/>
</svg>
